# xmcd
#
# Track frame offsets:
# 183
# 9710
# 20188
# 46160
# 66178
# 102595
# 113738
# 132258
# 143430
# 171830
# 189915
# 219428
# 249123
# 258005
# 283038
# 295908
# 308693
# 317703
# 339138
#
# Disc length: 4658 seconds
#
#
# Revision: 4
# Processed by: cddbd v1.5.2PL0 Copyright (c) Steve Scherf et al.
# Submitted via: FreeRIP 2.96 
#
DISCID=09123013
DTITLE=Various Artist - Guitar Heroes - Volume 3
DYEAR=1996
DGENRE=Rock
TTITLE0=Link Wray and his Raymen - Batman theme
TTITLE1=Duane Eddy -  Rebel Rouser
TTITLE2=Albert Collins - Icy blue
TTITLE3=Jan Akkerman - Journey (a real elegant gipsy)
TTITLE4=Jimi Hendrix - Red House
TTITLE5=Eric Clapton - Snake Drive
TTITLE6=Santana - With a litttle Help from my Friends
TTITLE7=Johnny Winter - Gangster of Love
TTITLE8=Freddy King - Ain't no Sunshine
TTITLE9=Albert King - Kansas City
TTITLE10=Albert Collins - My Woman has a black Cat Bone
TTITLE11=Santana - Let`s get ourselves together
TTITLE12=Eric Clapton and The Yardbirds - Talkin` about you
TTITLE13=Freddie King - Goin' down
TTITLE14=Jimi Hendrix - Wipe the Sweat - 1
TTITLE15=Carl Perkins - Put your Cat Clothes on
TTITLE16=Billy Riley - Flying Saucers Rock 'n' Roll
TTITLE17=Albert King - King's Jump
TTITLE18=Eric Clapton and The Yardbirds - Let it rock
EXTD=
EXTT0=
EXTT1=
EXTT2=
EXTT3=
EXTT4=
EXTT5=
EXTT6=
EXTT7=
EXTT8=
EXTT9=
EXTT10=
EXTT11=
EXTT12=
EXTT13=
EXTT14=
EXTT15=
EXTT16=
EXTT17=
EXTT18=
PLAYORDER=
